<svg width="22" height="22" viewBox="0 0 22 22" fill="none" xmlns="http://www.w3.org/2000/svg">
<path d="M9.13235 17.9945V18.4945H9.63235H11.4847H11.9847V17.9945V17.075C12.7749 16.8762 13.4763 16.527 14.0806 16.0234C14.8583 15.3754 15.2132 14.4317 15.2132 13.2842C15.2132 12.4412 14.9703 11.6636 14.4904 10.9638C13.9766 10.2145 13.0069 9.63132 11.7075 9.16207L11.7075 9.16193L11.6958 9.15801C10.6391 8.80578 9.96141 8.51367 9.6144 8.28736C9.34065 8.10883 9.23263 7.89986 9.23263 7.6212C9.23263 7.2975 9.33952 7.0848 9.53708 6.92462C9.74096 6.75931 10.083 6.6393 10.6379 6.6393C11.1246 6.6393 11.4353 6.75661 11.6348 6.92835C11.8839 7.14286 12.0639 7.40773 12.1768 7.73254L12.3497 8.22958L12.8373 8.03151L14.5309 7.34348L14.9579 7.17002L14.8197 6.73034C14.5963 6.0196 14.1853 5.40542 13.6015 4.89093C13.1313 4.47644 12.6085 4.19898 12.0377 4.07047V3.1755V2.6755H11.5377H9.68528H9.18528V3.1755V4.11183C8.39366 4.34897 7.73702 4.75364 7.23995 5.33949C6.67394 6.00657 6.38025 6.77245 6.38025 7.6212C6.38025 8.5543 6.65665 9.35579 7.24516 9.9764C7.80627 10.5681 8.65115 11.0426 9.72733 11.4258C10.8335 11.8298 11.5462 12.1714 11.9164 12.4434C12.2277 12.6721 12.3608 12.9405 12.3608 13.2842C12.3608 13.7319 12.212 13.9864 11.9636 14.1502C11.644 14.361 11.2453 14.4778 10.7438 14.4778C10.2745 14.4778 9.86923 14.3352 9.509 14.0456C9.16002 13.7651 8.87493 13.3223 8.68324 12.6674L8.52947 12.142L8.02011 12.3426L6.27359 13.0307L5.8491 13.1979L5.97685 13.6359C6.24271 14.5474 6.66382 15.3097 7.25442 15.9003C7.7638 16.4097 8.39467 16.7737 9.13235 17.001V17.9945ZM10.585 20.67C9.18582 20.67 7.87749 20.4049 6.65495 19.8773C5.4227 19.3456 4.3558 18.6265 3.44967 17.7203C2.54353 16.8142 1.82437 15.7473 1.29265 14.5151C0.765117 13.2925 0.5 11.9842 0.5 10.585C0.5 9.18582 0.765117 7.87749 1.29265 6.65495C1.82437 5.4227 2.54353 4.3558 3.44967 3.44967C4.3558 2.54353 5.4227 1.82437 6.65495 1.29265C7.87749 0.765117 9.18582 0.5 10.585 0.5C11.9842 0.5 13.2925 0.765117 14.5151 1.29265C15.7473 1.82437 16.8142 2.54353 17.7203 3.44967C18.6265 4.3558 19.3456 5.4227 19.8773 6.65495C20.4049 7.87749 20.67 9.18582 20.67 10.585C20.67 11.9842 20.4049 13.2925 19.8773 14.5151C19.3456 15.7473 18.6265 16.8142 17.7203 17.7203C16.8142 18.6265 15.7473 19.3456 14.5151 19.8773C13.2925 20.4049 11.9842 20.67 10.585 20.67Z" fill="white" stroke="black"/>
</svg>
